<?xml version="1.0" encoding="UTF-8" standalone="no" ?>
<!DOCTYPE svg PUBLIC "-//W3C//DTD SVG 1.1//EN" "http://www.w3.org/Graphics/SVG/1.1/DTD/svg11.dtd">
<svg xmlns="http://www.w3.org/2000/svg" xmlns:xlink="http://www.w3.org/1999/xlink" version="1.1" width="720" height="1144" viewBox="0 0 1440 2288" xml:space="preserve">
<desc>Created with Fabric.js 3.6.3</desc>
<defs>
</defs>
<g transform="matrix(1 0 0 1 734 1524)"  >
<g style=""   >
		<g transform="matrix(1 0 0 1 -14.14 -31.52)"  >
<linearGradient id="SVGID_13" gradientUnits="userSpaceOnUse" gradientTransform="matrix(1 0 0 1 0 0)"  x1="2138.27" y1="1669.85" x2="922.574" y2="720.05">
<stop offset="0%" style="stop-color:rgb(255,141,39);stop-opacity: 1"/>
<stop offset="100%" style="stop-color:rgb(229,68,4);stop-opacity: 1"/>
</linearGradient>
<path style="stroke: none; stroke-width: 1; stroke-dasharray: none; stroke-linecap: butt; stroke-dashoffset: 0; stroke-linejoin: miter; stroke-miterlimit: 4; fill: url(#SVGID_13); fill-rule: nonzero; opacity: 1;"  transform=" translate(-1604.86, -1491.48)" d="M 886.781 786.459 C 886.779 781.505 887.381 776.533 889.003 771.852 C 904.319 727.663 940.635 710.834 984.484 702.364 C 1012.38 696.977 1040.27 697.02 1068.32 697.031 C 1435.11 697.186 1801.89 697.131 2168.68 697.847 C 2210.13 697.924 2251.53 702.397 2287.96 726.038 C 2316.96 744.865 2331.58 778.487 2317.56 815.128 C 2297.99 866.255 2274.81 915.829 2252.75 965.887 C 2235.54 1004.91 2217.82 1043.7 2200.98 1082.87 C 2178.18 1135.93 2136.16 1159.86 2080.65 1160.23 C 1950.23 1161.09 1819.8 1160.5 1689.38 1160.5 C 1676.7 1160.5 1665 1163.26 1658.19 1175.03 C 1652.55 1184.78 1654.67 1194.93 1659.98 1204.25 C 1664.62 1212.4 1672.98 1216.21 1681.04 1219.77 C 1719.17 1236.59 1758.52 1250.4 1796.49 1267.68 C 1856.16 1294.84 1916.64 1320.27 1971.98 1355.96 C 2000.59 1374.41 2019.8 1399.91 2028.72 1432.91 C 2034.38 1453.87 2032.37 1474.58 2023.93 1494.15 C 1990.89 1570.74 1957.39 1647.14 1923.86 1723.53 C 1904.55 1767.54 1868.55 1789.46 1823.22 1799.29 C 1771.57 1810.48 1719.33 1802.33 1667.42 1804.82 C 1660.85 1805.14 1654.24 1804.91 1647.65 1804.86 C 1609.21 1804.61 1600.06 1828 1616.12 1859.59 C 1630.06 1887 1646.21 1913.3 1661.7 1939.9 C 1686.03 1981.7 1708.8 2024.06 1722.23 2071.02 C 1739.55 2131.64 1733.78 2188.18 1693.99 2238.51 C 1659.67 2281.91 1596.89 2301.53 1550.75 2271.48 C 1525.1 2254.76 1510.13 2229.8 1497.81 2203.8 C 1470 2145.15 1444.14 2085.57 1418.1 2026.11 C 1378.34 1935.3 1342.24 1842.82 1301.12 1752.72 C 1218.12 1570.89 1138.45 1387.6 1060.38 1203.68 C 1006.23 1076.12 947.579 950.541 895.516 822.123 C 893.252 816.54 891.444 810.771 889.652 804.995 C 887.79 798.991 886.783 792.745 886.781 786.459 V 786.459 Z" stroke-linecap="round" />
</g>
		<g transform="matrix(1 0 0 1 12.53 -1247.63)"  >
<linearGradient id="SVGID_14" gradientUnits="userSpaceOnUse" gradientTransform="matrix(1 0 0 1 0 0)"  x1="1243.52" y1="232.062" x2="1755.76" y2="747.387">
<stop offset="0%" style="stop-color:rgb(184,255,77);stop-opacity: 1"/>
<stop offset="100%" style="stop-color:rgb(99,192,0);stop-opacity: 1"/>
</linearGradient>
<path style="stroke: none; stroke-width: 1; stroke-dasharray: none; stroke-linecap: butt; stroke-dashoffset: 0; stroke-linejoin: miter; stroke-miterlimit: 4; fill: url(#SVGID_14); fill-rule: nonzero; opacity: 1;"  transform=" translate(-1631.54, -275.37)" d="M 1641.23 550.58 C 1540.98 551.009 1457.06 529.23 1382.57 475.073 C 1318.52 428.496 1280.21 364.997 1259.01 290.185 C 1248.85 254.293 1242.25 217.741 1244.49 179.999 C 1245.18 168.508 1248.9 162.416 1261.14 162.714 C 1338.79 164.554 1412.32 180.23 1476.08 227.623 C 1483.16 232.888 1484.79 229.606 1486.47 224.373 C 1489.56 214.722 1491.83 204.808 1494.78 195.102 C 1510.98 141.739 1542.3 97.2543 1577.15 54.8191 C 1592.11 36.6089 1608.48 19.7538 1625.5 3.47156 C 1630.31 -1.1333 1633.41 -1.18839 1638.15 3.49359 C 1696.55 61.2306 1748.48 123.209 1771.35 204.466 C 1772.1 207.121 1772.59 209.842 1773.14 212.541 C 1777.12 232.349 1779.23 232.91 1795.17 221.288 C 1828.75 196.81 1867.28 183.656 1907.21 174.336 C 1938.51 167.021 1969.98 160.709 2002.54 162.56 C 2013.62 163.188 2018.96 167.297 2019.01 178.589 C 2019.61 284.06 1987.3 377.17 1910.19 450.672 C 1858.65 499.816 1795.9 529.616 1725.08 541.965 C 1694.14 547.385 1663.29 551.648 1641.23 550.58 Z" stroke-linecap="round" />
</g>
		<g transform="matrix(1 0 0 1 10.44 1258.23)"  >
<path style="stroke: none; stroke-width: 1; stroke-dasharray: none; stroke-linecap: butt; stroke-dashoffset: 0; stroke-linejoin: miter; stroke-miterlimit: 4; fill: rgb(255,255,255); fill-rule: nonzero; opacity: 1;"  transform=" translate(-1629.44, -2781.23)" d="M 31.8428 2907 V 2563.67 H 236.786 V 2628.55 H 99.5986 V 2709.96 H 232.955 V 2774.6 H 99.5986 V 2907 H 31.8428 Z M 288.137 2907 V 2661.83 H 351.344 V 2703.97 C 357.249 2688.33 366.986 2676.6 380.553 2668.78 C 394.12 2660.96 409.204 2657.05 425.803 2657.05 V 2727.44 C 422.292 2726.96 418.86 2726.72 415.508 2726.72 C 400.345 2726.88 386.538 2731.11 374.089 2739.41 C 358.925 2749.62 351.344 2766.46 351.344 2789.92 V 2907 H 288.137 Z M 482.9 2876.35 C 458 2851.29 445.551 2820.65 445.551 2784.42 C 445.551 2748.18 458 2717.54 482.9 2692.48 C 507.959 2667.42 538.605 2654.89 574.837 2654.89 C 611.229 2654.89 641.955 2667.42 667.014 2692.48 C 692.233 2717.54 704.842 2748.18 704.842 2784.42 C 704.842 2820.65 692.233 2851.29 667.014 2876.35 C 641.955 2901.41 611.229 2913.94 574.837 2913.94 C 538.605 2913.94 507.959 2901.41 482.9 2876.35 Z M 527.432 2735.81 C 514.982 2748.58 508.757 2764.78 508.757 2784.42 C 508.757 2804.05 514.982 2820.25 527.432 2833.02 C 540.042 2845.79 555.843 2852.17 574.837 2852.17 C 593.831 2852.17 609.713 2845.79 622.482 2833.02 C 635.251 2820.25 641.635 2804.05 641.635 2784.42 C 641.635 2764.78 635.251 2748.58 622.482 2735.81 C 609.713 2723.05 593.831 2716.66 574.837 2716.66 C 555.843 2716.66 540.042 2723.05 527.432 2735.81 Z M 754.278 2907 V 2661.83 H 817.484 V 2689.37 C 832.807 2666.38 857.148 2654.89 890.507 2654.89 C 917.322 2654.89 939.429 2663.91 956.827 2681.95 C 974.384 2699.98 983.163 2724.8 983.163 2756.4 V 2907 H 919.956 V 2764.31 C 919.956 2748.03 915.487 2735.58 906.549 2726.96 C 897.77 2718.18 886.038 2713.79 871.354 2713.79 C 855.073 2713.79 841.985 2718.9 832.089 2729.11 C 822.353 2739.17 817.484 2754.33 817.484 2774.6 V 2907 H 754.278 Z M 1021.11 2722.65 V 2661.83 H 1063.72 V 2612.27 L 1126.93 2593.12 V 2661.83 H 1182.48 V 2722.65 H 1126.93 V 2824.64 C 1126.93 2833.1 1129 2839.32 1133.15 2843.31 C 1137.46 2847.15 1143.77 2849.3 1152.07 2849.78 C 1155.58 2849.94 1159.41 2850.1 1163.56 2850.26 C 1169.15 2850.26 1175.45 2850.02 1182.48 2849.54 V 2907 C 1170.5 2908.44 1159.57 2909.15 1149.67 2909.15 C 1123.18 2909.15 1103.47 2904.37 1090.54 2894.79 C 1072.66 2881.7 1063.72 2858.32 1063.72 2824.64 V 2722.65 H 1021.11 Z M 1532.35 2913.37 C 1480.38 2913.37 1437.39 2896.21 1403.39 2861.89 C 1369.73 2827.57 1352.89 2785.4 1352.89 2735.38 C 1352.89 2685.37 1369.73 2643.2 1403.39 2608.88 C 1437.39 2574.56 1480.38 2557.39 1532.35 2557.39 C 1563.73 2557.39 1592.5 2564.91 1618.65 2579.95 C 1645.13 2594.99 1665.72 2615.25 1680.43 2640.75 L 1640.72 2663.8 C 1630.91 2644.84 1616.2 2629.8 1596.59 2618.68 C 1577.3 2607.24 1555.89 2601.52 1532.35 2601.52 C 1492.8 2601.52 1460.44 2614.27 1435.27 2639.77 C 1410.42 2665.27 1398 2697.14 1398 2735.38 C 1398 2773.3 1410.42 2805.01 1435.27 2830.51 C 1460.44 2856.01 1492.8 2868.75 1532.35 2868.75 C 1555.89 2868.75 1577.3 2863.2 1596.59 2852.08 C 1616.2 2840.64 1630.91 2825.6 1640.72 2806.97 L 1680.43 2829.53 C 1666.05 2855.02 1645.62 2875.46 1619.14 2890.82 C 1592.66 2905.86 1563.73 2913.37 1532.35 2913.37 Z M 1856.1 2655.46 C 1884.86 2655.46 1907.91 2664.61 1925.23 2682.92 C 1942.56 2700.9 1951.22 2725.41 1951.22 2756.47 V 2907 H 1908.56 V 2758.92 C 1908.56 2738.98 1903.17 2723.62 1892.38 2712.83 C 1881.59 2701.71 1866.72 2696.16 1847.76 2696.16 C 1826.51 2696.16 1809.35 2702.86 1796.28 2716.26 C 1783.2 2729.34 1776.66 2749.6 1776.66 2777.06 V 2907 H 1734 V 2563.77 H 1776.66 V 2697.14 C 1793.99 2669.35 1820.47 2655.46 1856.1 2655.46 Z M 2218.67 2661.83 H 2261.33 V 2907 H 2218.67 V 2864.83 C 2197.43 2897.19 2166.54 2913.37 2126 2913.37 C 2091.68 2913.37 2062.42 2900.95 2038.23 2876.11 C 2014.04 2850.94 2001.95 2820.37 2001.95 2784.42 C 2001.95 2748.46 2014.04 2718.06 2038.23 2693.22 C 2062.42 2668.05 2091.68 2655.46 2126 2655.46 C 2166.54 2655.46 2197.43 2671.64 2218.67 2704 V 2661.83 Z M 2131.4 2872.19 C 2156.24 2872.19 2177 2863.85 2193.67 2847.18 C 2210.34 2830.18 2218.67 2809.26 2218.67 2784.42 C 2218.67 2759.57 2210.34 2738.82 2193.67 2722.14 C 2177 2705.15 2156.24 2696.65 2131.4 2696.65 C 2106.88 2696.65 2086.28 2705.15 2069.61 2722.14 C 2052.94 2738.82 2044.61 2759.57 2044.61 2784.42 C 2044.61 2809.26 2052.94 2830.18 2069.61 2847.18 C 2086.28 2863.85 2106.88 2872.19 2131.4 2872.19 Z M 2466.2 2655.46 C 2500.52 2655.46 2529.78 2668.05 2553.97 2693.22 C 2578.16 2718.06 2590.25 2748.46 2590.25 2784.42 C 2590.25 2820.37 2578.16 2850.94 2553.97 2876.11 C 2529.78 2900.95 2500.52 2913.37 2466.2 2913.37 C 2425.67 2913.37 2394.77 2897.19 2373.53 2864.83 V 3005.07 H 2330.87 V 2661.83 H 2373.53 V 2704 C 2394.77 2671.64 2425.67 2655.46 2466.2 2655.46 Z M 2460.81 2872.19 C 2485.32 2872.19 2505.92 2863.85 2522.59 2847.18 C 2539.26 2830.18 2547.59 2809.26 2547.59 2784.42 C 2547.59 2759.57 2539.26 2738.82 2522.59 2722.14 C 2505.92 2705.15 2485.32 2696.65 2460.81 2696.65 C 2435.96 2696.65 2415.21 2705.15 2398.53 2722.14 C 2381.86 2738.82 2373.53 2759.57 2373.53 2784.42 C 2373.53 2809.26 2381.86 2830.18 2398.53 2847.18 C 2415.21 2863.85 2435.96 2872.19 2460.81 2872.19 Z M 2774.16 2703.02 H 2708.95 V 2835.9 C 2708.95 2848 2711.24 2856.66 2715.81 2861.89 C 2720.72 2866.79 2728.07 2869.41 2737.88 2869.73 C 2747.68 2869.73 2759.78 2869.41 2774.16 2868.75 V 2907 C 2736.9 2911.9 2709.6 2908.96 2692.28 2898.17 C 2674.95 2887.06 2666.29 2866.3 2666.29 2835.9 V 2703.02 H 2617.75 V 2661.83 H 2666.29 V 2605.94 L 2708.95 2593.19 V 2661.83 H 2774.16 V 2703.02 Z M 2847.03 2804.03 C 2851.28 2825.93 2861.25 2842.93 2876.94 2855.02 C 2892.96 2867.12 2912.57 2873.17 2935.78 2873.17 C 2968.14 2873.17 2991.68 2861.24 3006.39 2837.37 L 3042.67 2857.97 C 3018.81 2894.91 2982.85 2913.37 2934.8 2913.37 C 2895.9 2913.37 2864.19 2901.28 2839.68 2877.09 C 2815.49 2852.57 2803.39 2821.68 2803.39 2784.42 C 2803.39 2747.48 2815.32 2716.75 2839.19 2692.23 C 2863.05 2667.72 2893.94 2655.46 2931.86 2655.46 C 2967.82 2655.46 2997.07 2668.21 3019.63 2693.71 C 3042.51 2718.88 3053.95 2749.28 3053.95 2784.91 C 3053.95 2791.12 3053.46 2797.49 3052.48 2804.03 H 2847.03 Z M 2931.86 2695.67 C 2908.98 2695.67 2890.02 2702.2 2874.98 2715.28 C 2859.94 2728.03 2850.63 2745.19 2847.03 2766.77 H 3010.8 C 3007.21 2743.56 2998.05 2725.9 2983.34 2713.81 C 2968.63 2701.71 2951.47 2695.67 2931.86 2695.67 Z M 3150.55 2703.02 C 3164.61 2672.62 3190.1 2657.42 3227.04 2657.42 V 2702.04 C 3206.12 2701.06 3188.14 2706.62 3173.1 2718.71 C 3158.07 2730.81 3150.55 2750.26 3150.55 2777.06 V 2907 H 3107.89 V 2661.83 H 3150.55 V 2703.02 Z" stroke-linecap="round" />
</g>
</g>
</g>
</svg>