<svg width="25" height="25" viewBox="0 0 25 25" fill="none" xmlns="http://www.w3.org/2000/svg">
<g clip-path="url(#clip0_438_3116)">
<path d="M19.303 8.868C20.295 9.35113 21.4186 9.49417 22.5 9.275V20.375C22.5 20.6402 22.3946 20.8946 22.2071 21.0821C22.0196 21.2696 21.7652 21.375 21.5 21.375H3.5C3.23478 21.375 2.98043 21.2696 2.79289 21.0821C2.60536 20.8946 2.5 20.6402 2.5 20.375V4.375C2.5 4.10978 2.60536 3.85543 2.79289 3.66789C2.98043 3.48036 3.23478 3.375 3.5 3.375H16.6C16.534 3.698 16.5 4.033 16.5 4.375C16.4983 5.56305 16.9215 6.71256 17.693 7.616L12.561 12.058L6.147 6.613L4.853 8.137L12.573 14.692L19.303 8.868ZM21.5 7.375C21.106 7.375 20.7159 7.2974 20.3519 7.14664C19.988 6.99587 19.6573 6.7749 19.3787 6.49632C19.1001 6.21774 18.8791 5.88703 18.7284 5.52305C18.5776 5.15907 18.5 4.76897 18.5 4.375C18.5 3.98103 18.5776 3.59093 18.7284 3.22695C18.8791 2.86297 19.1001 2.53226 19.3787 2.25368C19.6573 1.9751 19.988 1.75413 20.3519 1.60336C20.7159 1.4526 21.106 1.375 21.5 1.375C22.2956 1.375 23.0587 1.69107 23.6213 2.25368C24.1839 2.81629 24.5 3.57935 24.5 4.375C24.5 5.17065 24.1839 5.93371 23.6213 6.49632C23.0587 7.05893 22.2956 7.375 21.5 7.375Z" fill="#4B5563"/>
</g>
<defs>
<clipPath id="clip0_438_3116">
<rect width="24" height="24" fill="white" transform="translate(0.5 0.375)"/>
</clipPath>
</defs>
</svg>
