<svg xmlns="http://www.w3.org/2000/svg" xmlns:xlink="http://www.w3.org/1999/xlink" version="1.1" width="240" height="53" viewBox="0 0 171.43 37.86" xml:space="preserve">
  <g transform="matrix(1 0 0 1 84.5 23.02)"  >
    <path fill="currentColor" style="stroke: none; stroke-width: 1; stroke-dasharray: none; stroke-linecap: butt; stroke-dashoffset: 0; stroke-linejoin: miter; stroke-miterlimit: 4; fill-rule: evenodd; opacity: 1;"  transform=" translate(-128, -22.52)" d="M 123.821 0.383864 C 120.138 1.05559 115.286 2.72037 111.278 4.68726 C 105.566 7.49088 100.063 11.1356 87.4486 20.4707 C 73.9924 30.4284 65.6821 34.8491 56.4934 36.9374 C 54.2475 37.4478 52.1005 37.5048 33.4317 37.5515 C 22.1098 37.5797 9.95614 37.6147 6.42322 37.6289 L 0 37.6549 V 45.0402 H 128 H 256 V 37.6911 L 230.694 37.5735 C 205.973 37.4584 205.319 37.4401 202.372 36.7755 C 193.016 34.6656 185.888 30.7061 169.171 18.3345 C 154.276 7.31165 146.501 2.98906 137.596 0.781329 C 134.175 -0.0668448 127.369 -0.263101 123.821 0.383864 Z" stroke-linecap="round" />
  </g>
</svg>
