<svg width="30" height="28" viewBox="0 0 30 28" fill="none" xmlns="http://www.w3.org/2000/svg">
<path d="M22.5 24.4826H7.5V25.9037C7.5 26.2805 7.34196 26.642 7.06066 26.9085C6.77936 27.175 6.39782 27.3247 6 27.3247H3C2.60218 27.3247 2.22064 27.175 1.93934 26.9085C1.65804 26.642 1.5 26.2805 1.5 25.9037V13.1142H0V7.42997H1.5V3.16681C1.5 2.41304 1.81607 1.69014 2.37868 1.15714C2.94129 0.624142 3.70435 0.324707 4.5 0.324707H25.5C26.2956 0.324707 27.0587 0.624142 27.6213 1.15714C28.1839 1.69014 28.5 2.41304 28.5 3.16681V7.42997H30V13.1142H28.5V25.9037C28.5 26.2805 28.342 26.642 28.0607 26.9085C27.7794 27.175 27.3978 27.3247 27 27.3247H24C23.6022 27.3247 23.2206 27.175 22.9393 26.9085C22.658 26.642 22.5 26.2805 22.5 25.9037V24.4826ZM4.5 3.16681V13.1142H25.5V3.16681H4.5ZM8.25 21.6405C8.84674 21.6405 9.41903 21.4159 9.84099 21.0162C10.2629 20.6164 10.5 20.0742 10.5 19.5089C10.5 18.9436 10.2629 18.4014 9.84099 18.0017C9.41903 17.6019 8.84674 17.3773 8.25 17.3773C7.65326 17.3773 7.08097 17.6019 6.65901 18.0017C6.23705 18.4014 6 18.9436 6 19.5089C6 20.0742 6.23705 20.6164 6.65901 21.0162C7.08097 21.4159 7.65326 21.6405 8.25 21.6405ZM21.75 21.6405C22.3467 21.6405 22.919 21.4159 23.341 21.0162C23.7629 20.6164 24 20.0742 24 19.5089C24 18.9436 23.7629 18.4014 23.341 18.0017C22.919 17.6019 22.3467 17.3773 21.75 17.3773C21.1533 17.3773 20.581 17.6019 20.159 18.0017C19.7371 18.4014 19.5 18.9436 19.5 19.5089C19.5 20.0742 19.7371 20.6164 20.159 21.0162C20.581 21.4159 21.1533 21.6405 21.75 21.6405Z" fill="#FF802E"/>
</svg>
