<svg width="30" height="30" viewBox="0 0 30 30" fill="none" xmlns="http://www.w3.org/2000/svg">
<path d="M1.93044 0.944698L12.9928 11.8915L8.33532 16.502L1.92879 10.1624C0.693786 8.93993 0 7.28212 0 5.55355C0 3.82497 0.693786 2.16717 1.92879 0.944698H1.93044ZM18.4754 14.5333L17.069 15.9251L28.7144 27.4489L26.3856 29.7533L14.7402 18.2311L3.09481 29.7533L0.76606 27.4489L16.1467 12.2289C15.1783 9.85438 16.1796 6.43523 18.8147 3.82441C22.0311 0.643199 26.463 -0.130918 28.7144 2.09691C30.9657 4.32474 30.1834 8.71032 26.9686 11.8915C24.3303 14.5023 20.875 15.4932 18.4754 14.5333Z" fill="#FF802E"/>
</svg>
