<svg width="30" height="27" viewBox="0 0 30 27" fill="none" xmlns="http://www.w3.org/2000/svg">
<path d="M10.5 23.4358H15V14.6854L9 9.64715L3 14.6854V23.4358H7.5V17.658H10.5V23.4358ZM28.5 26.3247H1.5C1.10218 26.3247 0.720644 26.1725 0.43934 25.9016C0.158035 25.6308 8.98055e-09 25.2634 8.98054e-09 24.8803V14.0282C-2.34432e-05 13.8218 0.0458863 13.6178 0.134637 13.4299C0.223387 13.242 0.352916 13.0746 0.5145 12.939L6 8.33271V1.76915C6 1.38606 6.15804 1.01866 6.43934 0.747775C6.72064 0.476889 7.10218 0.324707 7.5 0.324707H28.5C28.8978 0.324707 29.2794 0.476889 29.5607 0.747775C29.842 1.01866 30 1.38606 30 1.76915V24.8803C30 25.2634 29.842 25.6308 29.5607 25.9016C29.2794 26.1725 28.8978 26.3247 28.5 26.3247ZM21 11.8803V14.7692H24V11.8803H21ZM21 17.658V20.5469H24V17.658H21ZM21 6.10248V8.99137H24V6.10248H21ZM15 6.10248V8.99137H18V6.10248H15Z" fill="#FF6D0F"/>
</svg>
